<mxfile host="app.diagrams.net" agent="Mozilla/5.0 (Windows NT 10.0; Win64; x64) AppleWebKit/537.36 (KHTML, like Gecko) Chrome/128.0.0.0 Safari/537.36" version="24.7.16">
  <diagram name="Page-1" id="OjksU21-kF56GLICyoHV">
    <mxGraphModel dx="1405" dy="2785" grid="1" gridSize="10" guides="1" tooltips="1" connect="1" arrows="1" fold="1" page="1" pageScale="1" pageWidth="850" pageHeight="1100" math="0" shadow="0">
      <root>
        <mxCell id="0" />
        <mxCell id="1" parent="0" />
        <mxCell id="JmRwEgHg82G_SG1-J1jg-32" value="" style="edgeStyle=orthogonalEdgeStyle;rounded=0;orthogonalLoop=1;jettySize=auto;html=1;entryX=0;entryY=0.75;entryDx=0;entryDy=0;fillColor=#fa6800;strokeColor=#C73500;labelBackgroundColor=default;" edge="1" parent="1" source="JmRwEgHg82G_SG1-J1jg-1" target="JmRwEgHg82G_SG1-J1jg-29">
          <mxGeometry relative="1" as="geometry">
            <mxPoint x="824" y="-650" as="targetPoint" />
            <Array as="points">
              <mxPoint x="930" y="-540" />
              <mxPoint x="930" y="-550" />
            </Array>
          </mxGeometry>
        </mxCell>
        <mxCell id="JmRwEgHg82G_SG1-J1jg-35" value="" style="edgeStyle=orthogonalEdgeStyle;rounded=0;orthogonalLoop=1;jettySize=auto;html=1;entryX=0;entryY=0.5;entryDx=0;entryDy=0;fillColor=#fa6800;strokeColor=#C73500;labelBackgroundColor=default;" edge="1" parent="1" source="JmRwEgHg82G_SG1-J1jg-1" target="JmRwEgHg82G_SG1-J1jg-34">
          <mxGeometry relative="1" as="geometry">
            <Array as="points">
              <mxPoint x="932" y="-530" />
              <mxPoint x="932" y="-460" />
            </Array>
          </mxGeometry>
        </mxCell>
        <mxCell id="JmRwEgHg82G_SG1-J1jg-39" value="" style="edgeStyle=orthogonalEdgeStyle;rounded=0;orthogonalLoop=1;jettySize=auto;html=1;entryX=1;entryY=0.25;entryDx=0;entryDy=0;fillColor=#fa6800;strokeColor=#C73500;labelBackgroundColor=default;" edge="1" parent="1" source="JmRwEgHg82G_SG1-J1jg-1" target="JmRwEgHg82G_SG1-J1jg-36">
          <mxGeometry relative="1" as="geometry">
            <mxPoint x="824" y="-650" as="targetPoint" />
          </mxGeometry>
        </mxCell>
        <mxCell id="JmRwEgHg82G_SG1-J1jg-1" value="Design" style="html=1;overflow=block;blockSpacing=1;whiteSpace=wrap;fontSize=16;spacing=3.8;rounded=1;absoluteArcSize=1;arcSize=9;strokeWidth=NaN;lucidId=nY~a-v1Nz4EH;labelBackgroundColor=default;fillColor=#fa6800;fontColor=#000000;strokeColor=#C73500;" vertex="1" parent="1">
          <mxGeometry x="764" y="-570" width="120" height="60" as="geometry" />
        </mxCell>
        <mxCell id="JmRwEgHg82G_SG1-J1jg-42" value="" style="edgeStyle=orthogonalEdgeStyle;rounded=0;orthogonalLoop=1;jettySize=auto;html=1;fillColor=#0050ef;strokeColor=#001DBC;labelBackgroundColor=default;fontColor=default;" edge="1" parent="1" source="JmRwEgHg82G_SG1-J1jg-2" target="JmRwEgHg82G_SG1-J1jg-41">
          <mxGeometry relative="1" as="geometry" />
        </mxCell>
        <mxCell id="JmRwEgHg82G_SG1-J1jg-44" value="" style="edgeStyle=orthogonalEdgeStyle;rounded=0;orthogonalLoop=1;jettySize=auto;html=1;fillColor=#0050ef;strokeColor=#001DBC;labelBackgroundColor=default;fontColor=default;" edge="1" parent="1" source="JmRwEgHg82G_SG1-J1jg-2" target="JmRwEgHg82G_SG1-J1jg-43">
          <mxGeometry relative="1" as="geometry" />
        </mxCell>
        <mxCell id="JmRwEgHg82G_SG1-J1jg-48" value="" style="edgeStyle=orthogonalEdgeStyle;rounded=0;orthogonalLoop=1;jettySize=auto;html=1;fillColor=#0050ef;strokeColor=#001DBC;labelBackgroundColor=default;fontColor=default;" edge="1" parent="1" source="JmRwEgHg82G_SG1-J1jg-2" target="JmRwEgHg82G_SG1-J1jg-3">
          <mxGeometry relative="1" as="geometry" />
        </mxCell>
        <mxCell id="JmRwEgHg82G_SG1-J1jg-2" value="Development" style="html=1;overflow=block;blockSpacing=1;whiteSpace=wrap;fontSize=16;spacing=3.8;rounded=1;absoluteArcSize=1;arcSize=9;strokeWidth=NaN;lucidId=AY~aSb12qtrh;labelBackgroundColor=default;fillColor=#0050ef;fontColor=default;strokeColor=#001DBC;" vertex="1" parent="1">
          <mxGeometry x="764" y="-390" width="120" height="60" as="geometry" />
        </mxCell>
        <mxCell id="JmRwEgHg82G_SG1-J1jg-3" value="&lt;strong&gt;Ensure design adherence&lt;/strong&gt;: Verify that the implementation follows the previously created design." style="html=1;overflow=block;blockSpacing=1;whiteSpace=wrap;fontSize=16;align=center;spacing=3.8;rounded=1;absoluteArcSize=1;arcSize=9;strokeWidth=NaN;lucidId=VY~a8S7SVbYF;labelBackgroundColor=default;fillColor=#0050ef;fontColor=default;strokeColor=#001DBC;" vertex="1" parent="1">
          <mxGeometry x="682" y="-280" width="284" height="70" as="geometry" />
        </mxCell>
        <mxCell id="JmRwEgHg82G_SG1-J1jg-4" value="Deployment" style="html=1;overflow=block;blockSpacing=1;whiteSpace=wrap;fontSize=16;spacing=3.8;rounded=1;absoluteArcSize=1;arcSize=9;strokeWidth=NaN;lucidId=6Y~a-WL6PUzG;labelBackgroundColor=default;" vertex="1" parent="1">
          <mxGeometry x="764" y="10" width="120" height="60" as="geometry" />
        </mxCell>
        <mxCell id="JmRwEgHg82G_SG1-J1jg-7" value="Maintenance" style="html=1;overflow=block;blockSpacing=1;whiteSpace=wrap;fontSize=16;spacing=3.8;rounded=1;absoluteArcSize=1;arcSize=9;strokeWidth=NaN;lucidId=q3~atVY8wk-X;labelBackgroundColor=default;" vertex="1" parent="1">
          <mxGeometry x="764" y="110" width="120" height="60" as="geometry" />
        </mxCell>
        <mxCell id="JmRwEgHg82G_SG1-J1jg-29" value="&lt;font style=&quot;font-size: 13px;&quot;&gt;&lt;strong&gt;UI/UX Design&lt;/strong&gt;: Create user-friendly interfaces and intuitive user experiences.&lt;/font&gt;" style="rounded=0;whiteSpace=wrap;html=1;fillColor=#fa6800;fontColor=#000000;strokeColor=#C73500;labelBackgroundColor=default;" vertex="1" parent="1">
          <mxGeometry x="980" y="-610" width="180" height="80" as="geometry" />
        </mxCell>
        <mxCell id="JmRwEgHg82G_SG1-J1jg-34" value="&lt;font style=&quot;font-size: 13px;&quot;&gt;&lt;strong&gt;System Architecture Design&lt;/strong&gt;: Define how system components (front-end, back-end, databases) interact and function.&lt;/font&gt;" style="rounded=0;whiteSpace=wrap;html=1;fillColor=#fa6800;fontColor=#000000;strokeColor=#C73500;labelBackgroundColor=default;" vertex="1" parent="1">
          <mxGeometry x="980" y="-510" width="180" height="90" as="geometry" />
        </mxCell>
        <mxCell id="JmRwEgHg82G_SG1-J1jg-36" value="&lt;font style=&quot;font-size: 13px;&quot;&gt;&lt;br&gt;&lt;strong&gt;Database Design&lt;/strong&gt;: Choose the database structure, including tables, fields, and relationships.&lt;br&gt;&lt;/font&gt;" style="rounded=0;whiteSpace=wrap;html=1;fillColor=#fa6800;fontColor=#000000;strokeColor=#C73500;labelBackgroundColor=default;" vertex="1" parent="1">
          <mxGeometry x="450" y="-605" width="200" height="70" as="geometry" />
        </mxCell>
        <mxCell id="JmRwEgHg82G_SG1-J1jg-37" value="&lt;font style=&quot;font-size: 13px;&quot;&gt;&lt;strong&gt;Flow Diagrams&lt;/strong&gt;: Develop flowcharts or diagrams to illustrate data flow and interactions between components.&lt;/font&gt;" style="rounded=0;whiteSpace=wrap;html=1;fillColor=#fa6800;fontColor=#000000;strokeColor=#C73500;labelBackgroundColor=default;" vertex="1" parent="1">
          <mxGeometry x="450" y="-510" width="200" height="75" as="geometry" />
        </mxCell>
        <mxCell id="JmRwEgHg82G_SG1-J1jg-40" value="" style="edgeStyle=orthogonalEdgeStyle;rounded=0;orthogonalLoop=1;jettySize=auto;html=1;entryX=1;entryY=0.5;entryDx=0;entryDy=0;fillColor=#fa6800;strokeColor=#C73500;labelBackgroundColor=default;" edge="1" parent="1" target="JmRwEgHg82G_SG1-J1jg-37">
          <mxGeometry relative="1" as="geometry">
            <mxPoint x="760" y="-520" as="sourcePoint" />
            <mxPoint x="834" y="-640" as="targetPoint" />
          </mxGeometry>
        </mxCell>
        <mxCell id="JmRwEgHg82G_SG1-J1jg-41" value="&lt;strong&gt;Writing code&lt;/strong&gt;: Develop the individual components of the software using the chosen programming languages and tools" style="html=1;overflow=block;blockSpacing=1;whiteSpace=wrap;fontSize=16;spacing=3.8;rounded=1;absoluteArcSize=1;arcSize=9;strokeWidth=NaN;lucidId=AY~aSb12qtrh;labelBackgroundColor=default;fillColor=#0050ef;fontColor=default;strokeColor=#001DBC;" vertex="1" parent="1">
          <mxGeometry x="964" y="-390" width="266" height="80" as="geometry" />
        </mxCell>
        <mxCell id="JmRwEgHg82G_SG1-J1jg-43" value="&lt;strong&gt;Integration&lt;/strong&gt;: Connect the front-end, back-end, and database to ensure seamless functionality." style="html=1;overflow=block;blockSpacing=1;whiteSpace=wrap;fontSize=16;spacing=3.8;rounded=1;absoluteArcSize=1;arcSize=9;strokeWidth=NaN;lucidId=AY~aSb12qtrh;labelBackgroundColor=default;fillColor=#0050ef;fontColor=default;strokeColor=#001DBC;" vertex="1" parent="1">
          <mxGeometry x="465" y="-400" width="170" height="100" as="geometry" />
        </mxCell>
        <mxCell id="JmRwEgHg82G_SG1-J1jg-49" value="&#x9;Testing" style="html=1;overflow=block;blockSpacing=1;whiteSpace=wrap;fontSize=16;align=left;spacing=3.8;rounded=1;absoluteArcSize=1;arcSize=9;strokeWidth=NaN;lucidId=VY~a8S7SVbYF;labelBackgroundColor=default;" vertex="1" parent="1">
          <mxGeometry x="764" y="-100" width="120" height="60" as="geometry" />
        </mxCell>
        <mxCell id="JmRwEgHg82G_SG1-J1jg-51" value="&lt;font style=&quot;font-size: 18px;&quot;&gt;Step 1&lt;/font&gt;" style="swimlane;whiteSpace=wrap;html=1;startSize=23;" vertex="1" parent="1">
          <mxGeometry x="300" y="-1690" width="1130" height="630" as="geometry" />
        </mxCell>
        <mxCell id="JmRwEgHg82G_SG1-J1jg-52" value="Requirements Gathering" style="html=1;overflow=block;blockSpacing=1;whiteSpace=wrap;fontSize=16;spacing=3.8;rounded=1;absoluteArcSize=1;arcSize=9;strokeWidth=NaN;lucidId=.1~a0TgRiDyi;labelBackgroundColor=default;fillColor=#b1ddf0;strokeColor=#10739e;" vertex="1" parent="JmRwEgHg82G_SG1-J1jg-51">
          <mxGeometry x="439" y="170" width="120" height="60" as="geometry" />
        </mxCell>
        <mxCell id="JmRwEgHg82G_SG1-J1jg-53" value="" style="html=1;jettySize=18;whiteSpace=wrap;overflow=block;blockSpacing=1;fontSize=13;strokeOpacity=100;strokeWidth=0.8;rounded=1;arcSize=12;edgeStyle=orthogonalEdgeStyle;startArrow=none;endArrow=block;endFill=1;exitX=0.5;exitY=0;lucidId=kLbbJI6P2jtx;labelBackgroundColor=default;exitDx=0;exitDy=0;fillColor=#b1ddf0;strokeColor=#10739e;" edge="1" parent="JmRwEgHg82G_SG1-J1jg-51" source="JmRwEgHg82G_SG1-J1jg-52" target="JmRwEgHg82G_SG1-J1jg-54">
          <mxGeometry width="100" height="100" relative="1" as="geometry">
            <Array as="points">
              <mxPoint x="490" y="150" />
              <mxPoint x="490" y="150" />
            </Array>
            <mxPoint x="623" y="215" as="targetPoint" />
          </mxGeometry>
        </mxCell>
        <mxCell id="JmRwEgHg82G_SG1-J1jg-54" value="&lt;div style=&quot;display: flex; justify-content: center; text-align: center; align-items: baseline; font-size: 0; line-height: 1.25;margin-top: -2px;&quot;&gt;&lt;span&gt;&lt;span style=&quot;font-size:16px;color:#000000;&quot;&gt; &lt;/span&gt;&lt;span style=&quot;font-size:16px;font-weight: bold;&quot;&gt;Prioritize features:&lt;/span&gt;&lt;span style=&quot;font-size:16px;color:#000000;&quot;&gt;Rank the most important features to focus on first.&lt;/span&gt;&lt;/span&gt;&lt;/div&gt;" style="html=1;overflow=block;blockSpacing=1;whiteSpace=wrap;fontSize=13;spacing=3.8;rounded=1;absoluteArcSize=1;arcSize=9;strokeWidth=NaN;lucidId=YLbbNh6ltYQk;labelBackgroundColor=default;fillColor=#b1ddf0;strokeColor=#10739e;" vertex="1" parent="JmRwEgHg82G_SG1-J1jg-51">
          <mxGeometry x="370" y="30" width="260" height="89.5" as="geometry" />
        </mxCell>
        <mxCell id="JmRwEgHg82G_SG1-J1jg-64" value="" style="edgeStyle=orthogonalEdgeStyle;rounded=0;orthogonalLoop=1;jettySize=auto;html=1;" edge="1" parent="JmRwEgHg82G_SG1-J1jg-51" source="JmRwEgHg82G_SG1-J1jg-55" target="JmRwEgHg82G_SG1-J1jg-63">
          <mxGeometry relative="1" as="geometry" />
        </mxCell>
        <mxCell id="JmRwEgHg82G_SG1-J1jg-55" value="&lt;div style=&quot;display: flex; justify-content: center; text-align: center; align-items: baseline; font-size: 0; line-height: 1.25;margin-top: -2px;&quot;&gt;&lt;span&gt;&lt;span style=&quot;font-size:16px;color:#000000;font-weight: bold;&quot;&gt;Document requirements&lt;/span&gt;&lt;span style=&quot;font-size:16px;color:#000000;&quot;&gt;: Create a detailed list of functional and non-functional requirements.&lt;/span&gt;&amp;lt;span style=&quot;font-size:13px;&quot;&amp;gt;Create a detailed list of functional and non-functional requir&lt;/span&gt;&lt;span style=&quot;font-size:16px;color:#000000;&quot;&gt; &lt;/span&gt;&lt;/div&gt;" style="html=1;overflow=block;blockSpacing=1;whiteSpace=wrap;fontSize=13;spacing=3.8;rounded=1;absoluteArcSize=1;arcSize=9;strokeWidth=NaN;lucidId=qMbbH3QFGqCu;labelBackgroundColor=default;fillColor=#b1ddf0;strokeColor=#10739e;" vertex="1" parent="JmRwEgHg82G_SG1-J1jg-51">
          <mxGeometry x="100" y="130" width="260" height="80" as="geometry" />
        </mxCell>
        <mxCell id="JmRwEgHg82G_SG1-J1jg-56" value="" style="html=1;jettySize=18;whiteSpace=wrap;overflow=block;blockSpacing=1;fontSize=13;strokeOpacity=100;strokeWidth=0.8;rounded=1;arcSize=12;edgeStyle=orthogonalEdgeStyle;startArrow=none;endArrow=block;endFill=1;exitX=1.006;exitY=0.5;exitPerimeter=0;entryX=-0.006;entryY=0.5;entryPerimeter=0;lucidId=iNbb8cwzz6Eo;labelBackgroundColor=default;fillColor=#b1ddf0;strokeColor=#10739e;" edge="1" parent="JmRwEgHg82G_SG1-J1jg-51" source="JmRwEgHg82G_SG1-J1jg-52" target="JmRwEgHg82G_SG1-J1jg-57">
          <mxGeometry width="100" height="100" relative="1" as="geometry">
            <Array as="points" />
          </mxGeometry>
        </mxCell>
        <mxCell id="JmRwEgHg82G_SG1-J1jg-101" value="" style="edgeStyle=orthogonalEdgeStyle;rounded=0;orthogonalLoop=1;jettySize=auto;html=1;" edge="1" parent="JmRwEgHg82G_SG1-J1jg-51" source="JmRwEgHg82G_SG1-J1jg-57" target="JmRwEgHg82G_SG1-J1jg-100">
          <mxGeometry relative="1" as="geometry" />
        </mxCell>
        <mxCell id="JmRwEgHg82G_SG1-J1jg-57" value="&lt;div style=&quot;display: flex; justify-content: center; text-align: center; align-items: baseline; font-size: 0; line-height: 1.25;margin-top: -2px;&quot;&gt;&lt;span&gt;&lt;span style=&quot;font-size:16px;color:#000000;font-weight: bold;&quot;&gt;Create user stories&lt;/span&gt;&lt;span style=&quot;font-size:16px;color:#000000;&quot;&gt;: Describe how different types of users will interact with the system.&lt;/span&gt;&lt;/span&gt;&lt;/div&gt;" style="html=1;overflow=block;blockSpacing=1;whiteSpace=wrap;fontSize=13;spacing=3.8;rounded=1;absoluteArcSize=1;arcSize=9;strokeWidth=NaN;lucidId=mNbbeHrmjqc-;labelBackgroundColor=default;fillColor=#b1ddf0;strokeColor=#10739e;" vertex="1" parent="JmRwEgHg82G_SG1-J1jg-51">
          <mxGeometry x="630" y="130" width="210" height="100" as="geometry" />
        </mxCell>
        <mxCell id="JmRwEgHg82G_SG1-J1jg-58" value="" style="html=1;jettySize=18;whiteSpace=wrap;overflow=block;blockSpacing=1;fontSize=13;strokeOpacity=100;strokeWidth=0.8;rounded=1;arcSize=12;edgeStyle=orthogonalEdgeStyle;startArrow=none;endArrow=block;endFill=1;exitX=0;exitY=0.5;entryX=1;entryY=0.5;lucidId=bObb_T.MiFxs;labelBackgroundColor=default;entryDx=0;entryDy=0;exitDx=0;exitDy=0;fillColor=#b1ddf0;strokeColor=#10739e;" edge="1" parent="JmRwEgHg82G_SG1-J1jg-51" source="JmRwEgHg82G_SG1-J1jg-52" target="JmRwEgHg82G_SG1-J1jg-55">
          <mxGeometry width="100" height="100" relative="1" as="geometry">
            <Array as="points" />
          </mxGeometry>
        </mxCell>
        <mxCell id="JmRwEgHg82G_SG1-J1jg-82" value="" style="edgeStyle=orthogonalEdgeStyle;rounded=0;orthogonalLoop=1;jettySize=auto;html=1;" edge="1" parent="JmRwEgHg82G_SG1-J1jg-51" source="JmRwEgHg82G_SG1-J1jg-63" target="JmRwEgHg82G_SG1-J1jg-55">
          <mxGeometry relative="1" as="geometry" />
        </mxCell>
        <mxCell id="JmRwEgHg82G_SG1-J1jg-63" value="&lt;div style=&quot;display: flex; justify-content: center; text-align: center; align-items: baseline; font-size: 0; line-height: 1.25;margin-top: -2px;&quot;&gt;&lt;span&gt;&lt;br&gt;&lt;/span&gt;&lt;span style=&quot;font-size:16px;color:#000000;&quot;&gt; &lt;/span&gt;&lt;/div&gt;" style="html=1;overflow=block;blockSpacing=1;whiteSpace=wrap;fontSize=13;spacing=3.8;rounded=1;absoluteArcSize=1;arcSize=9;strokeWidth=NaN;lucidId=qMbbH3QFGqCu;labelBackgroundColor=default;fillColor=#b1ddf0;strokeColor=#10739e;" vertex="1" parent="JmRwEgHg82G_SG1-J1jg-51">
          <mxGeometry x="30" y="270" width="400" height="320" as="geometry" />
        </mxCell>
        <mxCell id="JmRwEgHg82G_SG1-J1jg-65" value="Functional" style="swimlane;fontStyle=0;childLayout=stackLayout;horizontal=1;startSize=18;horizontalStack=0;resizeParent=1;resizeParentMax=0;resizeLast=0;collapsible=1;marginBottom=0;align=center;fontSize=14;" vertex="1" parent="JmRwEgHg82G_SG1-J1jg-51">
          <mxGeometry x="40" y="305" width="170" height="230" as="geometry">
            <mxRectangle x="40" y="305" width="110" height="30" as="alternateBounds" />
          </mxGeometry>
        </mxCell>
        <mxCell id="JmRwEgHg82G_SG1-J1jg-66" value="&lt;strong&gt;Uploading links or videos&lt;/strong&gt;" style="text;strokeColor=none;fillColor=none;spacingLeft=4;spacingRight=4;overflow=hidden;rotatable=0;points=[[0,0.5],[1,0.5]];portConstraint=eastwest;fontSize=12;whiteSpace=wrap;html=1;" vertex="1" parent="JmRwEgHg82G_SG1-J1jg-65">
          <mxGeometry y="18" width="170" height="30" as="geometry" />
        </mxCell>
        <mxCell id="JmRwEgHg82G_SG1-J1jg-67" value="&lt;b&gt;Video processing&lt;/b&gt;" style="text;strokeColor=none;fillColor=none;spacingLeft=4;spacingRight=4;overflow=hidden;rotatable=0;points=[[0,0.5],[1,0.5]];portConstraint=eastwest;fontSize=12;whiteSpace=wrap;html=1;" vertex="1" parent="JmRwEgHg82G_SG1-J1jg-65">
          <mxGeometry y="48" width="170" height="30" as="geometry" />
        </mxCell>
        <mxCell id="JmRwEgHg82G_SG1-J1jg-68" value="&lt;strong&gt;Summarizing the video&lt;/strong&gt;" style="text;strokeColor=none;fillColor=none;spacingLeft=4;spacingRight=4;overflow=hidden;rotatable=0;points=[[0,0.5],[1,0.5]];portConstraint=eastwest;fontSize=12;whiteSpace=wrap;html=1;" vertex="1" parent="JmRwEgHg82G_SG1-J1jg-65">
          <mxGeometry y="78" width="170" height="32" as="geometry" />
        </mxCell>
        <mxCell id="JmRwEgHg82G_SG1-J1jg-88" value="&lt;b&gt;Multi-language support&lt;/b&gt;" style="text;strokeColor=none;fillColor=none;spacingLeft=4;spacingRight=4;overflow=hidden;rotatable=0;points=[[0,0.5],[1,0.5]];portConstraint=eastwest;fontSize=12;whiteSpace=wrap;html=1;" vertex="1" parent="JmRwEgHg82G_SG1-J1jg-65">
          <mxGeometry y="110" width="170" height="30" as="geometry" />
        </mxCell>
        <mxCell id="JmRwEgHg82G_SG1-J1jg-86" value="&lt;strong&gt;Text and visual summaries&lt;/strong&gt;" style="text;strokeColor=none;fillColor=none;spacingLeft=4;spacingRight=4;overflow=hidden;rotatable=0;points=[[0,0.5],[1,0.5]];portConstraint=eastwest;fontSize=12;whiteSpace=wrap;html=1;" vertex="1" parent="JmRwEgHg82G_SG1-J1jg-65">
          <mxGeometry y="140" width="170" height="30" as="geometry" />
        </mxCell>
        <mxCell id="JmRwEgHg82G_SG1-J1jg-87" value="&lt;strong&gt;User interface&lt;/strong&gt;" style="text;strokeColor=none;fillColor=none;spacingLeft=4;spacingRight=4;overflow=hidden;rotatable=0;points=[[0,0.5],[1,0.5]];portConstraint=eastwest;fontSize=12;whiteSpace=wrap;html=1;" vertex="1" parent="JmRwEgHg82G_SG1-J1jg-65">
          <mxGeometry y="170" width="170" height="30" as="geometry" />
        </mxCell>
        <mxCell id="JmRwEgHg82G_SG1-J1jg-84" value="&lt;b&gt;Notifications&lt;/b&gt;" style="text;strokeColor=none;fillColor=none;spacingLeft=4;spacingRight=4;overflow=hidden;rotatable=0;points=[[0,0.5],[1,0.5]];portConstraint=eastwest;fontSize=12;whiteSpace=wrap;html=1;" vertex="1" parent="JmRwEgHg82G_SG1-J1jg-65">
          <mxGeometry y="200" width="170" height="30" as="geometry" />
        </mxCell>
        <mxCell id="JmRwEgHg82G_SG1-J1jg-83" value="&lt;span style=&quot;font-size: 16px; font-weight: 700; background-color: rgb(255, 255, 255);&quot;&gt;Document requirements&lt;/span&gt;" style="text;html=1;align=center;verticalAlign=middle;whiteSpace=wrap;rounded=0;" vertex="1" parent="JmRwEgHg82G_SG1-J1jg-51">
          <mxGeometry x="60" y="275" width="255" height="30" as="geometry" />
        </mxCell>
        <mxCell id="JmRwEgHg82G_SG1-J1jg-89" value="Non-Functional" style="swimlane;fontStyle=0;childLayout=stackLayout;horizontal=1;startSize=18;horizontalStack=0;resizeParent=1;resizeParentMax=0;resizeLast=0;collapsible=1;marginBottom=0;align=center;fontSize=14;" vertex="1" parent="JmRwEgHg82G_SG1-J1jg-51">
          <mxGeometry x="240" y="305" width="170" height="260" as="geometry">
            <mxRectangle x="240" y="305" width="130" height="30" as="alternateBounds" />
          </mxGeometry>
        </mxCell>
        <mxCell id="JmRwEgHg82G_SG1-J1jg-90" value="&lt;strong&gt;Performance&lt;/strong&gt;" style="text;strokeColor=none;fillColor=none;spacingLeft=4;spacingRight=4;overflow=hidden;rotatable=0;points=[[0,0.5],[1,0.5]];portConstraint=eastwest;fontSize=12;whiteSpace=wrap;html=1;" vertex="1" parent="JmRwEgHg82G_SG1-J1jg-89">
          <mxGeometry y="18" width="170" height="30" as="geometry" />
        </mxCell>
        <mxCell id="JmRwEgHg82G_SG1-J1jg-91" value="&lt;strong&gt;Security&lt;/strong&gt;" style="text;strokeColor=none;fillColor=none;spacingLeft=4;spacingRight=4;overflow=hidden;rotatable=0;points=[[0,0.5],[1,0.5]];portConstraint=eastwest;fontSize=12;whiteSpace=wrap;html=1;" vertex="1" parent="JmRwEgHg82G_SG1-J1jg-89">
          <mxGeometry y="48" width="170" height="30" as="geometry" />
        </mxCell>
        <mxCell id="JmRwEgHg82G_SG1-J1jg-92" value="&lt;strong&gt;Scalability&lt;/strong&gt;" style="text;strokeColor=none;fillColor=none;spacingLeft=4;spacingRight=4;overflow=hidden;rotatable=0;points=[[0,0.5],[1,0.5]];portConstraint=eastwest;fontSize=12;whiteSpace=wrap;html=1;" vertex="1" parent="JmRwEgHg82G_SG1-J1jg-89">
          <mxGeometry y="78" width="170" height="32" as="geometry" />
        </mxCell>
        <mxCell id="JmRwEgHg82G_SG1-J1jg-93" value="&lt;strong&gt;Reliability&lt;/strong&gt;" style="text;strokeColor=none;fillColor=none;spacingLeft=4;spacingRight=4;overflow=hidden;rotatable=0;points=[[0,0.5],[1,0.5]];portConstraint=eastwest;fontSize=12;whiteSpace=wrap;html=1;" vertex="1" parent="JmRwEgHg82G_SG1-J1jg-89">
          <mxGeometry y="110" width="170" height="30" as="geometry" />
        </mxCell>
        <mxCell id="JmRwEgHg82G_SG1-J1jg-94" value="&lt;strong&gt;Usability&lt;/strong&gt;" style="text;strokeColor=none;fillColor=none;spacingLeft=4;spacingRight=4;overflow=hidden;rotatable=0;points=[[0,0.5],[1,0.5]];portConstraint=eastwest;fontSize=12;whiteSpace=wrap;html=1;" vertex="1" parent="JmRwEgHg82G_SG1-J1jg-89">
          <mxGeometry y="140" width="170" height="30" as="geometry" />
        </mxCell>
        <mxCell id="JmRwEgHg82G_SG1-J1jg-97" value="&lt;strong&gt;Maintainability&lt;/strong&gt;" style="text;strokeColor=none;fillColor=none;spacingLeft=4;spacingRight=4;overflow=hidden;rotatable=0;points=[[0,0.5],[1,0.5]];portConstraint=eastwest;fontSize=12;whiteSpace=wrap;html=1;" vertex="1" parent="JmRwEgHg82G_SG1-J1jg-89">
          <mxGeometry y="170" width="170" height="30" as="geometry" />
        </mxCell>
        <mxCell id="JmRwEgHg82G_SG1-J1jg-95" value="&lt;strong&gt;Portability&amp;nbsp;&lt;/strong&gt;" style="text;strokeColor=none;fillColor=none;spacingLeft=4;spacingRight=4;overflow=hidden;rotatable=0;points=[[0,0.5],[1,0.5]];portConstraint=eastwest;fontSize=12;whiteSpace=wrap;html=1;" vertex="1" parent="JmRwEgHg82G_SG1-J1jg-89">
          <mxGeometry y="200" width="170" height="30" as="geometry" />
        </mxCell>
        <mxCell id="JmRwEgHg82G_SG1-J1jg-96" value="&lt;strong&gt;Privacy&lt;/strong&gt;" style="text;strokeColor=none;fillColor=none;spacingLeft=4;spacingRight=4;overflow=hidden;rotatable=0;points=[[0,0.5],[1,0.5]];portConstraint=eastwest;fontSize=12;whiteSpace=wrap;html=1;" vertex="1" parent="JmRwEgHg82G_SG1-J1jg-89">
          <mxGeometry y="230" width="170" height="30" as="geometry" />
        </mxCell>
        <UserObject label="&lt;font style=&quot;font-size: 14px;&quot;&gt;&lt;u&gt;Click Read more about this&lt;/u&gt;&lt;/font&gt;" link="https://docs.google.com/document/d/1GYMyFnKAEZ0dDv6Ty4nNmSNK-7abCRfsDbh7YhiO94w/edit?usp=sharing" linkTarget="_blank" id="JmRwEgHg82G_SG1-J1jg-98">
          <mxCell style="text;html=1;align=center;verticalAlign=middle;whiteSpace=wrap;rounded=0;fillColor=#FFFFFF;" vertex="1" parent="JmRwEgHg82G_SG1-J1jg-51">
            <mxGeometry x="50" y="550" width="150" height="30" as="geometry" />
          </mxCell>
        </UserObject>
        <UserObject label="Click here to read more&amp;nbsp;" link="https://docs.google.com/document/d/1kQtHRwp4ykcHnQpEatVQkxf67ytnUpM3kLFF2caCbfc/edit?usp=sharing" linkTarget="_blank" id="JmRwEgHg82G_SG1-J1jg-100">
          <mxCell style="html=1;overflow=block;blockSpacing=1;whiteSpace=wrap;fontSize=13;spacing=3.8;rounded=1;absoluteArcSize=1;arcSize=9;strokeWidth=NaN;lucidId=mNbbeHrmjqc-;labelBackgroundColor=default;fillColor=#b1ddf0;strokeColor=#10739e;" vertex="1" parent="JmRwEgHg82G_SG1-J1jg-51">
            <mxGeometry x="640" y="290" width="210" height="100" as="geometry" />
          </mxCell>
        </UserObject>
        <mxCell id="JmRwEgHg82G_SG1-J1jg-102" value="Container" style="swimlane;" vertex="1" parent="1">
          <mxGeometry x="460" y="-1030" width="850" height="390" as="geometry" />
        </mxCell>
        <mxCell id="JmRwEgHg82G_SG1-J1jg-6" value="System Analysis" style="html=1;overflow=block;blockSpacing=1;whiteSpace=wrap;fontSize=16;spacing=3.8;rounded=1;absoluteArcSize=1;arcSize=9;strokeWidth=NaN;lucidId=t2~aDKnk3Tje;labelBackgroundColor=default;fillColor=#6a00ff;strokeColor=#3700CC;fontColor=default;" vertex="1" parent="JmRwEgHg82G_SG1-J1jg-102">
          <mxGeometry x="364" y="178.5" width="120" height="61" as="geometry" />
        </mxCell>
        <mxCell id="JmRwEgHg82G_SG1-J1jg-15" value="&lt;div style=&quot;display: flex; justify-content: center; text-align: center; align-items: baseline; font-size: 0; line-height: 1.25;margin-top: -2px;&quot;&gt;&lt;span&gt;&lt;span style=&quot;font-size:16px;font-weight: bold;&quot;&gt;Analyze Requirements&lt;/span&gt;&lt;span style=&quot;font-size:16px;&quot;&gt;: Break down and understand all the gathered requirements.&lt;/span&gt;&lt;/span&gt;&lt;/div&gt;" style="html=1;overflow=block;blockSpacing=1;whiteSpace=wrap;fontSize=13;spacing=3.8;rounded=1;absoluteArcSize=1;arcSize=9;strokeWidth=1;lucidId=uVbbZWx4geT6;labelBackgroundColor=default;fillColor=#6a00ff;strokeColor=#3700CC;fontColor=default;" vertex="1" parent="JmRwEgHg82G_SG1-J1jg-102">
          <mxGeometry x="600" y="80" width="190" height="103.5" as="geometry" />
        </mxCell>
        <mxCell id="JmRwEgHg82G_SG1-J1jg-16" value="" style="html=1;jettySize=18;whiteSpace=wrap;overflow=block;blockSpacing=1;fontSize=13;strokeOpacity=100;strokeWidth=0.8;rounded=1;arcSize=12;edgeStyle=orthogonalEdgeStyle;startArrow=none;endArrow=block;endFill=1;exitX=-0.006;exitY=0.5;exitPerimeter=0;entryX=1.006;entryY=0.5;entryPerimeter=0;lucidId=EVbbu~GAkLtK;labelBackgroundColor=default;fillColor=#6a00ff;strokeColor=#3700CC;fontColor=default;" edge="1" parent="JmRwEgHg82G_SG1-J1jg-102" source="JmRwEgHg82G_SG1-J1jg-6" target="JmRwEgHg82G_SG1-J1jg-17">
          <mxGeometry width="100" height="100" relative="1" as="geometry">
            <Array as="points" />
          </mxGeometry>
        </mxCell>
        <mxCell id="JmRwEgHg82G_SG1-J1jg-17" value="&lt;div style=&quot;display: flex; justify-content: center; text-align: center; align-items: baseline; font-size: 0; line-height: 1.25;margin-top: -2px;&quot;&gt;&lt;span&gt;&lt;span style=&quot;font-size:16px;font-weight: bold;&quot;&gt;Define System Architecture&lt;/span&gt;&lt;span style=&quot;font-size:16px;&quot;&gt;: Conceptualize the system structure, data flow, and interactions between components.&lt;/span&gt;&lt;/span&gt;&lt;/div&gt;" style="html=1;overflow=block;blockSpacing=1;whiteSpace=wrap;fontSize=13;spacing=3.8;rounded=1;absoluteArcSize=1;arcSize=9;strokeWidth=NaN;lucidId=EVbbYgtIqxNd;labelBackgroundColor=default;fillColor=#6a00ff;strokeColor=#3700CC;fontColor=default;" vertex="1" parent="JmRwEgHg82G_SG1-J1jg-102">
          <mxGeometry x="60" y="80" width="210" height="130" as="geometry" />
        </mxCell>
        <mxCell id="JmRwEgHg82G_SG1-J1jg-19" value="&lt;div style=&quot;display: flex; justify-content: center; text-align: center; align-items: baseline; font-size: 0; line-height: 1.25;margin-top: -2px;&quot;&gt;&lt;span&gt;&lt;span style=&quot;font-size:16px;font-weight: bold;&quot;&gt;Select Technologies&lt;/span&gt;&lt;span style=&quot;font-size:16px;&quot;&gt;: Choose the appropriate tools, languages, and frameworks for development&lt;/span&gt;&lt;/span&gt;&lt;/div&gt;" style="html=1;overflow=block;blockSpacing=1;whiteSpace=wrap;fontSize=13;spacing=3.8;rounded=1;absoluteArcSize=1;arcSize=9;strokeWidth=NaN;lucidId=uWbbACUDWX_y;labelBackgroundColor=default;fillColor=#6a00ff;strokeColor=#3700CC;fontColor=default;" vertex="1" parent="JmRwEgHg82G_SG1-J1jg-102">
          <mxGeometry x="60" y="220" width="210" height="110" as="geometry" />
        </mxCell>
        <mxCell id="JmRwEgHg82G_SG1-J1jg-22" value="" style="html=1;jettySize=18;whiteSpace=wrap;overflow=block;blockSpacing=1;fontSize=13;strokeOpacity=100;strokeWidth=0.8;rounded=1;arcSize=12;edgeStyle=orthogonalEdgeStyle;startArrow=none;endArrow=block;endFill=1;entryX=1;entryY=0.5;lucidId=EVbbu~GAkLtK;labelBackgroundColor=default;entryDx=0;entryDy=0;fillColor=#6a00ff;strokeColor=#3700CC;fontColor=default;" edge="1" parent="JmRwEgHg82G_SG1-J1jg-102" target="JmRwEgHg82G_SG1-J1jg-19">
          <mxGeometry width="100" height="100" relative="1" as="geometry">
            <Array as="points" />
            <mxPoint x="360" y="220" as="sourcePoint" />
            <mxPoint x="240" y="210" as="targetPoint" />
          </mxGeometry>
        </mxCell>
        <mxCell id="JmRwEgHg82G_SG1-J1jg-25" value="&lt;font style=&quot;font-size: 16px;&quot;&gt;&lt;strong&gt;Create Diagrams&lt;/strong&gt;:&lt;/font&gt; &lt;font style=&quot;font-size: 15px;&quot;&gt;Develop diagrams like Data Flow Diagrams (DFD) or Entity-Relationship Diagrams (ERD) to visualize relationships.&lt;/font&gt;" style="rounded=0;whiteSpace=wrap;html=1;fillColor=#6a00ff;strokeColor=#3700CC;labelBackgroundColor=default;fontColor=default;" vertex="1" parent="JmRwEgHg82G_SG1-J1jg-102">
          <mxGeometry x="540" y="200" width="280" height="110.5" as="geometry" />
        </mxCell>
        <mxCell id="JmRwEgHg82G_SG1-J1jg-27" value="" style="html=1;jettySize=18;whiteSpace=wrap;overflow=block;blockSpacing=1;fontSize=13;strokeOpacity=100;strokeWidth=0.8;rounded=1;arcSize=12;edgeStyle=orthogonalEdgeStyle;startArrow=none;endArrow=block;endFill=1;lucidId=uVbbrpP7aTMt;labelBackgroundColor=default;fillColor=#6a00ff;strokeColor=#3700CC;entryX=0.011;entryY=0.561;entryDx=0;entryDy=0;entryPerimeter=0;fontColor=default;" edge="1" parent="JmRwEgHg82G_SG1-J1jg-102" target="JmRwEgHg82G_SG1-J1jg-25">
          <mxGeometry width="100" height="100" relative="1" as="geometry">
            <Array as="points">
              <mxPoint x="420" y="239" />
              <mxPoint x="420" y="270" />
              <mxPoint x="510" y="270" />
              <mxPoint x="510" y="262" />
            </Array>
            <mxPoint x="418" y="239" as="sourcePoint" />
            <mxPoint x="509.5" y="284.75" as="targetPoint" />
          </mxGeometry>
        </mxCell>
        <mxCell id="JmRwEgHg82G_SG1-J1jg-28" value="" style="html=1;jettySize=18;whiteSpace=wrap;overflow=block;blockSpacing=1;fontSize=13;strokeOpacity=100;strokeWidth=0.8;rounded=1;arcSize=12;edgeStyle=orthogonalEdgeStyle;startArrow=none;endArrow=block;endFill=1;lucidId=iNbb8cwzz6Eo;labelBackgroundColor=default;exitX=1;exitY=0.25;exitDx=0;exitDy=0;fillColor=#6a00ff;strokeColor=#3700CC;entryX=-0.005;entryY=0.406;entryDx=0;entryDy=0;entryPerimeter=0;fontColor=default;" edge="1" parent="JmRwEgHg82G_SG1-J1jg-102" source="JmRwEgHg82G_SG1-J1jg-6" target="JmRwEgHg82G_SG1-J1jg-15">
          <mxGeometry width="100" height="100" relative="1" as="geometry">
            <Array as="points">
              <mxPoint x="484" y="210" />
              <mxPoint x="500" y="210" />
              <mxPoint x="500" y="132" />
              <mxPoint x="560" y="132" />
              <mxPoint x="560" y="123" />
            </Array>
            <mxPoint x="480" y="220" as="sourcePoint" />
            <mxPoint x="530" y="123" as="targetPoint" />
          </mxGeometry>
        </mxCell>
      </root>
    </mxGraphModel>
  </diagram>
</mxfile>
